<svg width="460" height="114" viewBox="0 0 460 114" fill="none" xmlns="http://www.w3.org/2000/svg">
<path d="M107.477 0H6.4486C2.88714 0 0 2.88903 0 6.45283V107.547C0 111.111 2.88714 114 6.4486 114H107.477C111.038 114 113.925 111.111 113.925 107.547V6.45283C113.925 2.88903 111.038 0 107.477 0Z" fill="white"/>
<path d="M92.779 44.2815L103.795 40.7539V103.368L92.779 106.984V81.4971H71.5395V103.368L60.5231 106.984V81.4971H53.4727L56.4691 75.5884H60.5231V44.2815L71.5395 40.7539V75.5884H92.779V44.2815Z" fill="#150067"/>
<path d="M127.839 54.1932L122.287 55.957L118.674 37.5256L130.924 33.3807L127.839 54.1932ZM130.66 99.434C130.66 100.316 130.865 101.021 131.277 101.551C131.688 102.08 132.246 102.344 132.951 102.344C134.42 102.344 135.918 101.315 137.446 99.2576L139.032 100.933C137.74 103.285 136.065 105.078 134.009 106.313C132.011 107.547 130.013 108.165 128.016 108.165C122.669 108.165 119.996 105.078 119.996 98.9049V67.157L130.66 63.453V99.434ZM195.746 62.6593C197.979 62.6593 199.595 63.3943 200.593 64.8641C201.651 66.2751 202.18 68.3916 202.18 71.2136V99.434C202.18 100.257 202.385 100.963 202.797 101.551C203.208 102.08 203.766 102.344 204.471 102.344C205.118 102.344 205.823 102.08 206.586 101.551C207.409 101.021 208.173 100.257 208.878 99.2576L210.464 100.933C208.995 103.932 207.203 105.901 205.088 106.842C202.973 107.724 201.328 108.165 200.153 108.165C194.454 108.165 191.604 105.078 191.604 98.9049V75.0939C191.604 74.5061 191.457 73.977 191.163 73.5065C190.928 73.0361 190.605 72.801 190.194 72.801C188.96 72.801 187.668 74.212 186.316 77.0341C185.024 79.7974 183.907 83.7364 182.967 88.8514C182.086 93.9663 181.645 99.8162 181.645 106.401L170.981 108.694V75.0939C170.981 74.5061 170.864 73.977 170.629 73.5065C170.394 73.0361 170.071 72.801 169.659 72.801C168.543 72.801 167.28 74.212 165.87 77.0341C164.519 79.8561 163.343 83.8246 162.345 88.9396C161.405 94.0545 160.934 99.875 160.934 106.401L150.711 108.694V71.6546C150.711 70.714 150.476 69.979 150.006 69.4499C149.595 68.862 149.037 68.568 148.332 68.568C147.627 68.568 146.892 68.862 146.129 69.4499C145.365 70.0377 144.66 70.8609 144.013 71.9191L142.339 70.1554C143.808 67.0982 145.629 65.0991 147.803 64.1585C149.977 63.159 151.622 62.6593 152.738 62.6593C158.261 62.6593 161.023 65.7459 161.023 71.9191V82.4136H161.375C162.844 76.2404 164.812 71.4195 167.28 67.9507C169.806 64.4231 172.421 62.6593 175.124 62.6593C177.474 62.6593 179.119 63.3648 180.059 64.7759C180.999 66.1869 181.469 68.3329 181.469 71.2136V82.4136H181.998C183.408 76.2404 185.347 71.4195 187.814 67.9507C190.341 64.4231 192.985 62.6593 195.746 62.6593ZM240.459 63.453C243.572 63.453 246.452 64.0704 249.096 65.305C251.798 66.5396 253.795 68.4503 255.089 71.0373L246.54 74.5648C245.717 73.0361 244.571 71.7722 243.103 70.7727C241.633 69.7731 240.076 69.2735 238.432 69.2735C234.494 69.2735 231.382 70.9196 229.09 74.212C226.799 77.5045 225.653 81.6199 225.653 86.5585C225.653 91.0856 226.328 94.8187 227.68 97.7584C229.03 100.639 231.175 102.08 234.114 102.08C238.226 102.08 241.046 100.169 242.574 96.3474C244.1 92.4671 244.866 88.2635 244.866 83.7364V79.8561L255.177 76.1522V99.0813C255.177 99.9044 255.353 100.639 255.706 101.286C256.116 101.874 256.703 102.168 257.468 102.168C258.936 102.168 260.435 101.139 261.963 99.0813L263.637 100.757C262.756 102.815 261.346 104.578 259.407 106.048C257.526 107.459 255.499 108.165 253.326 108.165C250.506 108.165 248.449 107.224 247.157 105.343C245.863 103.402 245.218 100.933 245.218 97.9348H244.866C243.455 101.11 241.575 103.697 239.225 105.695C236.874 107.636 234.142 108.606 231.029 108.606C226.328 108.606 222.685 106.901 220.101 103.491C217.573 100.022 216.311 95.5242 216.311 89.9978C216.311 85.2944 217.309 80.9144 219.308 76.8577C221.363 72.801 224.213 69.5675 227.856 67.157C231.558 64.6877 235.758 63.453 240.459 63.453ZM302.759 62.6593C304.816 62.6593 306.314 63.2767 307.254 64.5113C308.193 65.6872 308.782 67.0982 309.016 68.7443C309.251 70.3317 309.369 72.3896 309.369 74.9176V99.434C309.369 100.14 309.575 100.816 309.986 101.462C310.456 102.05 311.013 102.344 311.66 102.344C312.542 102.344 313.305 102.08 313.952 101.551C314.657 100.963 315.392 100.198 316.155 99.2576L317.653 100.933C316.596 102.991 315.127 104.725 313.247 106.136C311.426 107.489 309.457 108.165 307.342 108.165C304.522 108.165 302.406 107.371 300.996 105.784C299.586 104.137 298.881 101.845 298.881 98.9049V75.7994C298.881 74.9763 298.793 74.2708 298.617 73.6829C298.441 73.0951 298.03 72.801 297.383 72.801C295.386 72.801 293.359 74.947 291.302 79.2388C289.245 83.4719 287.512 88.3517 286.102 93.8781C284.692 99.4045 283.987 103.579 283.987 106.401L273.676 108.694V71.6546C273.676 70.7727 273.469 70.0377 273.059 69.4499C272.648 68.862 272.059 68.568 271.296 68.568C270.473 68.568 269.652 68.9207 268.829 69.6262C268.065 70.273 267.419 71.0373 266.89 71.9191L265.303 70.1554C266.185 68.0976 267.565 66.3338 269.446 64.8641C271.326 63.3943 273.353 62.6593 275.527 62.6593C278.465 62.6593 280.608 63.4825 281.96 65.1286C283.312 66.716 283.987 68.9502 283.987 71.831V88.8514H284.34C285.926 82.3254 288.275 76.3286 291.39 70.8609C294.563 65.3932 298.352 62.6593 302.759 62.6593ZM336.085 59.8373C340.081 59.8373 342.078 61.4247 342.078 64.5995C342.02 66.0105 341.726 67.2451 341.197 68.3034C340.668 69.3617 340.081 70.3023 339.434 71.1254C338.847 71.9486 338.435 72.507 338.2 72.801C338.964 73.6829 340.346 74.947 342.343 76.5931C344.163 78.0629 345.634 79.4152 346.749 80.6498C347.865 81.8257 348.806 83.3542 349.569 85.2356C350.332 87.0581 350.715 89.2923 350.715 91.938C350.715 94.9951 349.952 97.8171 348.424 100.404C346.956 102.932 344.929 104.931 342.343 106.401C339.757 107.871 336.909 108.606 333.794 108.606C331.503 108.606 329.123 108.194 326.655 107.371C324.188 106.548 322.337 105.401 321.103 103.932L327.537 95.2891C328.77 97.1706 330.239 98.8462 331.943 100.316C333.648 101.786 335.35 102.521 337.055 102.521C339.228 102.521 341.109 101.786 342.695 100.316C344.281 98.8462 345.075 96.9942 345.075 94.76C345.075 92.9375 344.312 91.1443 342.783 89.3805C341.255 87.6167 339.082 85.4707 336.262 82.9427C334.323 81.2377 333.089 80.0912 332.56 79.5034L326.567 88.234L323.394 86.1175L330.269 76.5931C329.093 74.4766 328.506 72.0368 328.506 69.2735C328.506 66.5691 329.153 64.3349 330.445 62.5711C331.737 60.7487 333.618 59.8373 336.085 59.8373ZM336.085 63.453C335.38 63.453 334.91 63.6589 334.675 64.0704C334.441 64.4818 334.323 65.0699 334.323 65.8341C334.323 66.4809 334.441 67.1275 334.675 67.7743C334.91 68.4211 335.174 69.0676 335.468 69.7144C336.115 69.244 336.672 68.5385 337.143 67.5979C337.614 66.6573 337.848 65.8341 337.848 65.1286C337.848 64.6582 337.672 64.2762 337.319 63.9822C337.025 63.6294 336.614 63.453 336.085 63.453ZM371.722 85.6766H372.075C373.367 79.9738 375.482 74.7117 378.42 69.8908C381.359 65.0699 384.972 62.6593 389.26 62.6593C391.257 62.6593 392.728 63.2767 393.667 64.5113C394.667 65.7459 395.283 67.2157 395.518 68.9207C395.752 70.5668 395.87 72.5952 395.87 75.0057V99.434C395.87 100.14 396.077 100.816 396.487 101.462C396.958 102.05 397.603 102.344 398.426 102.344C399.836 102.344 401.304 101.315 402.833 99.2576L404.331 100.933C403.331 102.932 401.893 104.637 400.012 106.048C398.132 107.459 396.077 108.165 393.843 108.165C388.261 108.165 385.471 105.078 385.471 98.9049V75.7994C385.471 75.0352 385.325 74.359 385.03 73.7711C384.796 73.1243 384.355 72.801 383.708 72.801C381.241 72.801 379.095 74.8588 377.275 78.9742C375.512 83.0896 374.132 87.8518 373.133 93.2608C372.193 98.6698 371.722 103.05 371.722 106.401L361.147 108.694V29.765L371.722 26.061V85.6766ZM449.806 99.3458C449.806 100.228 450.013 100.963 450.423 101.551C450.836 102.08 451.423 102.344 452.186 102.344C453.362 102.344 454.802 101.345 456.504 99.3458L458.003 100.933C456.534 103.932 454.714 105.901 452.538 106.842C450.365 107.724 448.721 108.165 447.603 108.165C445.43 108.165 443.755 107.665 442.58 106.665C441.464 105.666 440.641 104.02 440.112 101.727C439.643 99.3753 439.407 96.0828 439.407 91.8498V89.2041L439.054 83.1191H438.702C437.292 89.41 435.177 95.2304 432.356 100.58C429.596 105.931 425.953 108.606 421.428 108.606C419.431 108.606 417.933 108.135 416.934 107.195C415.994 106.195 415.377 104.872 415.083 103.226C414.849 101.58 414.73 99.3164 414.73 96.4356V71.9191C414.73 70.9196 414.526 70.1554 414.113 69.6262C413.703 69.0384 413.144 68.7443 412.439 68.7443C411.029 68.7443 409.531 69.8026 407.944 71.9191L406.446 70.2436C407.446 68.0683 408.709 66.422 410.236 65.305C411.764 64.188 413.086 63.4825 414.201 63.1885C415.377 62.8944 416.14 62.7475 416.493 62.7475C419.666 62.7475 421.929 63.6294 423.279 65.3932C424.631 67.0982 425.306 69.2735 425.306 71.9191V95.4655C425.306 96.5238 425.424 97.3469 425.659 97.9348C425.953 98.5227 426.306 98.8167 426.716 98.8167C428.831 98.8167 430.8 96.7002 432.621 92.4671C434.444 88.1753 435.912 83.3249 437.027 77.916C438.145 72.4483 438.702 68.4798 438.702 66.0105L449.806 62.3066V99.3458Z" fill="white"/>
</svg>
