<svg width="223" height="223" viewBox="0 0 223 223" fill="none" xmlns="http://www.w3.org/2000/svg">
<g filter="url(#filter0_d_325_19)">
<rect x="46" y="46" width="131" height="131" rx="17" fill="#150067"/>
</g>
<path fill-rule="evenodd" clip-rule="evenodd" d="M96.4664 75.5709C90.5428 75.8381 85.4084 77.2864 81.2626 81.4148C77.1022 85.5648 75.672 90.7195 75.404 96.5815C75.2375 100.24 74.2635 127.882 77.0878 135.131C78.9923 140.021 82.7434 143.782 87.6786 145.692C89.9815 146.588 92.6103 147.194 96.4664 147.371C128.71 148.831 140.662 148.036 145.702 135.131C146.597 132.834 147.212 130.207 147.383 126.361C148.856 94.0345 147.144 87.0276 141.524 81.4148C137.067 76.9686 131.824 73.9419 96.4664 75.5709ZM96.7633 140.87C93.233 140.711 91.3176 140.123 90.0394 139.628C86.8241 138.378 84.409 135.973 83.1671 132.777C81.0163 127.269 81.7296 101.108 81.9216 96.8747C82.1098 92.7283 82.9499 88.9387 85.8755 86.0131C89.4963 82.4012 94.1744 80.6311 126.027 82.0686C130.184 82.2564 133.982 83.0947 136.915 86.0131C140.536 89.625 142.332 94.3391 140.869 126.069C140.709 129.591 140.119 131.502 139.623 132.777C136.346 141.174 128.808 142.34 96.7633 140.87ZM126.378 92.1893C126.378 94.5804 128.323 96.5247 130.723 96.5247C133.124 96.5247 135.072 94.5804 135.072 92.1893C135.072 89.7982 133.124 87.8557 130.723 87.8557C128.323 87.8557 126.378 89.7982 126.378 92.1893ZM92.8021 111.469C92.8021 121.713 101.126 130.017 111.395 130.017C121.664 130.017 129.988 121.713 129.988 111.469C129.988 101.226 121.664 92.9267 111.395 92.9267C101.126 92.9267 92.8021 101.226 92.8021 111.469ZM99.3269 111.469C99.3269 104.824 104.729 99.4315 111.395 99.4315C118.061 99.4315 123.463 104.824 123.463 111.469C123.463 118.119 118.061 123.513 111.395 123.513C104.729 123.513 99.3269 118.119 99.3269 111.469Z" fill="white"/>
<defs>
<filter id="filter0_d_325_19" x="0" y="0" width="223" height="223" filterUnits="userSpaceOnUse" color-interpolation-filters="sRGB">
<feFlood flood-opacity="0" result="BackgroundImageFix"/>
<feColorMatrix in="SourceAlpha" type="matrix" values="0 0 0 0 0 0 0 0 0 0 0 0 0 0 0 0 0 0 127 0" result="hardAlpha"/>
<feMorphology radius="3" operator="dilate" in="SourceAlpha" result="effect1_dropShadow_325_19"/>
<feOffset/>
<feGaussianBlur stdDeviation="21.5"/>
<feComposite in2="hardAlpha" operator="out"/>
<feColorMatrix type="matrix" values="0 0 0 0 1 0 0 0 0 1 0 0 0 0 1 0 0 0 0.11 0"/>
<feBlend mode="normal" in2="BackgroundImageFix" result="effect1_dropShadow_325_19"/>
<feBlend mode="normal" in="SourceGraphic" in2="effect1_dropShadow_325_19" result="shape"/>
</filter>
</defs>
</svg>
