<svg width="224" height="223" viewBox="0 0 224 223" fill="none" xmlns="http://www.w3.org/2000/svg">
<g filter="url(#filter0_d_325_66)">
<rect x="46.375" y="46" width="131" height="131" rx="17" fill="#150067"/>
</g>
<path fill-rule="evenodd" clip-rule="evenodd" d="M112.636 148.497C107.725 148.497 105.584 147.392 101.41 144.404C97.6324 141.701 95.2095 140.216 88.1963 141.602C85.4605 142.142 85.5139 141.895 84.9263 139.161C84.6134 137.721 84.3882 136.844 83.8541 136.76C78.1573 135.872 74.788 134.559 74.1165 132.972C73.796 132.207 74.1776 131.606 74.7652 131.506C82.1943 130.27 88.2002 124.034 90.8063 117.892C90.8139 117.876 90.8177 117.86 90.8254 117.849C91.4855 116.498 91.6152 115.331 91.2184 114.382C90.3217 112.243 87.4332 111.795 85.3613 110.961C83.9343 110.39 81.5876 109.186 81.9005 107.525C82.1866 106.004 84.6248 105.039 85.9298 105.657C89.2075 107.213 91.8326 106.737 92.6186 106.003C92.5805 105.258 93.0766 104.452 93.0766 103.695C93.0766 98.4324 91.7487 91.8851 93.4047 88.1323C100.551 71.9165 124.392 71.9978 131.5 88.1248C133.156 91.8815 132.748 98.4322 132.42 103.702L132.404 103.954C132.359 104.668 132.317 105.343 132.282 106C132.435 106.142 133.049 106.637 134.305 106.687C135.369 106.645 136.598 106.298 137.949 105.657C139.54 104.904 142.405 106.058 142.436 107.788C142.451 108.595 141.86 109.799 138.948 110.961C136.884 111.787 133.988 112.243 133.095 114.382C132.694 115.331 132.824 116.498 133.484 117.845C133.492 117.861 133.496 117.876 133.503 117.892C133.706 118.374 138.609 129.683 149.544 131.506C150.006 131.583 150.338 132 150.311 132.471C150.3 132.641 150.262 132.81 150.189 132.976C149.522 134.555 146.156 135.864 140.456 136.752C139.921 136.837 139.696 137.714 139.387 139.146C138.918 141.324 138.99 142.073 136.113 141.501C129.177 140.134 126.547 141.787 122.904 144.393C120.217 146.315 117.18 148.497 112.636 148.497Z" fill="white"/>
<defs>
<filter id="filter0_d_325_66" x="0.375" y="0" width="223" height="223" filterUnits="userSpaceOnUse" color-interpolation-filters="sRGB">
<feFlood flood-opacity="0" result="BackgroundImageFix"/>
<feColorMatrix in="SourceAlpha" type="matrix" values="0 0 0 0 0 0 0 0 0 0 0 0 0 0 0 0 0 0 127 0" result="hardAlpha"/>
<feMorphology radius="3" operator="dilate" in="SourceAlpha" result="effect1_dropShadow_325_66"/>
<feOffset/>
<feGaussianBlur stdDeviation="21.5"/>
<feComposite in2="hardAlpha" operator="out"/>
<feColorMatrix type="matrix" values="0 0 0 0 1 0 0 0 0 1 0 0 0 0 1 0 0 0 0.11 0"/>
<feBlend mode="normal" in2="BackgroundImageFix" result="effect1_dropShadow_325_66"/>
<feBlend mode="normal" in="SourceGraphic" in2="effect1_dropShadow_325_66" result="shape"/>
</filter>
</defs>
</svg>
